<?xml version="1.0" standalone="no"?>
<svg viewBox="0 0 200 200" xmlns="http://www.w3.org/2000/svg">
  <path fill="#FBD25C" d="M37.4,-63.6C46.7,-59.4,51.4,-45.9,57.7,-33.7C64.1,-21.6,72.2,-10.8,71.6,-0.3C71,10.1,61.8,20.2,53.3,28.7C44.8,37.1,37,43.8,28.2,48.7C19.4,53.6,9.7,56.7,-1.9,60C-13.5,63.2,-26.9,66.6,-35.5,61.6C-44.1,56.6,-47.9,43.2,-55.1,31.6C-62.3,19.9,-72.9,10,-76.3,-1.9C-79.6,-13.8,-75.8,-27.7,-67.2,-36.9C-58.5,-46.1,-45.2,-50.6,-33.2,-53.3C-21.2,-56,-10.6,-56.9,1.7,-59.8C14,-62.8,28,-67.8,37.4,-63.6Z" transform="translate(100 100)" />
</svg>
